<svg width="24" height="24" viewBox="0 0 24 24" fill="none" xmlns="http://www.w3.org/2000/svg">
<path d="M9 12.75H5.25C4.65326 12.75 4.08097 12.9871 3.65901 13.409C3.23705 13.831 3 14.4033 3 15V18.75C3 19.3467 3.23705 19.919 3.65901 20.341C4.08097 20.7629 4.65326 21 5.25 21H9C9.59674 21 10.169 20.7629 10.591 20.341C11.0129 19.919 11.25 19.3467 11.25 18.75V15C11.25 14.4033 11.0129 13.831 10.591 13.409C10.169 12.9871 9.59674 12.75 9 12.75ZM9.75 18.75C9.75 18.9489 9.67098 19.1397 9.53033 19.2803C9.38968 19.421 9.19891 19.5 9 19.5H5.25C5.05109 19.5 4.86032 19.421 4.71967 19.2803C4.57902 19.1397 4.5 18.9489 4.5 18.75V15C4.5 14.8011 4.57902 14.6103 4.71967 14.4697C4.86032 14.329 5.05109 14.25 5.25 14.25H9C9.19891 14.25 9.38968 14.329 9.53033 14.4697C9.67098 14.6103 9.75 14.8011 9.75 15V18.75Z" fill="#464A4F"/>
<path d="M18.75 12.75H15C14.4033 12.75 13.831 12.9871 13.409 13.409C12.9871 13.831 12.75 14.4033 12.75 15V18.75C12.75 19.3467 12.9871 19.919 13.409 20.341C13.831 20.7629 14.4033 21 15 21H18.75C19.3467 21 19.919 20.7629 20.341 20.341C20.7629 19.919 21 19.3467 21 18.75V15C21 14.4033 20.7629 13.831 20.341 13.409C19.919 12.9871 19.3467 12.75 18.75 12.75V12.75ZM19.5 18.75C19.5 18.9489 19.421 19.1397 19.2803 19.2803C19.1397 19.421 18.9489 19.5 18.75 19.5H15C14.8011 19.5 14.6103 19.421 14.4697 19.2803C14.329 19.1397 14.25 18.9489 14.25 18.75V15C14.25 14.8011 14.329 14.6103 14.4697 14.4697C14.6103 14.329 14.8011 14.25 15 14.25H18.75C18.9489 14.25 19.1397 14.329 19.2803 14.4697C19.421 14.6103 19.5 14.8011 19.5 15V18.75Z" fill="#464A4F"/>
<path d="M9 3H5.25C4.65326 3 4.08097 3.23705 3.65901 3.65901C3.23705 4.08097 3 4.65326 3 5.25V9C3 9.59674 3.23705 10.169 3.65901 10.591C4.08097 11.0129 4.65326 11.25 5.25 11.25H9C9.59674 11.25 10.169 11.0129 10.591 10.591C11.0129 10.169 11.25 9.59674 11.25 9V5.25C11.25 4.65326 11.0129 4.08097 10.591 3.65901C10.169 3.23705 9.59674 3 9 3V3ZM9.75 9C9.75 9.19891 9.67098 9.38968 9.53033 9.53033C9.38968 9.67098 9.19891 9.75 9 9.75H5.25C5.05109 9.75 4.86032 9.67098 4.71967 9.53033C4.57902 9.38968 4.5 9.19891 4.5 9V5.25C4.5 5.05109 4.57902 4.86032 4.71967 4.71967C4.86032 4.57902 5.05109 4.5 5.25 4.5H9C9.19891 4.5 9.38968 4.57902 9.53033 4.71967C9.67098 4.86032 9.75 5.05109 9.75 5.25V9Z" fill="#464A4F"/>
<path d="M13.5 7.875H16.125V10.5C16.125 10.6989 16.204 10.8897 16.3447 11.0303C16.4853 11.171 16.6761 11.25 16.875 11.25C17.0739 11.25 17.2647 11.171 17.4053 11.0303C17.546 10.8897 17.625 10.6989 17.625 10.5V7.875H20.25C20.4489 7.875 20.6397 7.79598 20.7803 7.65533C20.921 7.51468 21 7.32391 21 7.125C21 6.92609 20.921 6.73532 20.7803 6.59467C20.6397 6.45402 20.4489 6.375 20.25 6.375H17.625V3.75C17.625 3.55109 17.546 3.36032 17.4053 3.21967C17.2647 3.07902 17.0739 3 16.875 3C16.6761 3 16.4853 3.07902 16.3447 3.21967C16.204 3.36032 16.125 3.55109 16.125 3.75V6.375H13.5C13.3011 6.375 13.1103 6.45402 12.9697 6.59467C12.829 6.73532 12.75 6.92609 12.75 7.125C12.75 7.32391 12.829 7.51468 12.9697 7.65533C13.1103 7.79598 13.3011 7.875 13.5 7.875Z" fill="#464A4F"/>
</svg>
