<svg width="23" height="23" viewBox="0 0 23 23" fill="none" xmlns="http://www.w3.org/2000/svg">
<g clip-path="url(#clip0_1_493)">
<path d="M21.849 10.5337C21.8491 10.5337 21.8491 10.5338 21.8491 10.5338L21.8491 10.5338L21.8491 10.5338L21.8492 10.5339L21.8492 10.5339L21.8493 10.5339C22.3807 11.0668 22.3804 11.9344 21.8486 12.4669C21.5889 12.7265 21.2478 12.8676 20.8815 12.8676H20.5347H19.7847V13.6176V20.5221C19.7847 21.4741 19.0089 22.25 18.0565 22.25H14.462V16.9131C14.462 15.8754 13.6191 15.0325 12.5815 15.0325H10.4164C9.37875 15.0325 8.53584 15.8754 8.53584 16.9131V22.25H4.9414C3.98894 22.25 3.21315 21.4741 3.21315 20.5221V13.6176V12.8676H2.46315H2.09281L2.07647 12.8661L2.05609 12.8652C1.71189 12.8504 1.39269 12.7102 1.14935 12.4668L1.14923 12.4667C0.617846 11.9353 0.616761 11.0689 1.14671 10.5359L1.153 10.5295L1.15665 10.5257L1.15714 10.5252L10.5319 1.15064L10.0016 0.620308L10.5319 1.15064C10.7914 0.89118 11.1323 0.75 11.4989 0.75C11.8654 0.75 12.2063 0.891257 12.4657 1.1507L12.4658 1.15082L21.849 10.5337ZM21.849 10.5337L21.849 10.5337L21.849 10.5337M21.849 10.5337C21.849 10.5337 21.849 10.5337 21.849 10.5337M21.849 10.5337C21.849 10.5337 21.849 10.5337 21.849 10.5337" stroke="#464A4F" stroke-width="1.5"/>
</g>
<defs>
<clipPath id="clip0_1_493">
<rect width="23" height="23" fill="white"/>
</clipPath>
</defs>
</svg>
