<svg width="24" height="24" viewBox="0 0 24 24" fill="none" xmlns="http://www.w3.org/2000/svg">
<path d="M18.2804 21.6H5.71962C5.43248 21.6003 5.14826 21.5452 4.88427 21.4378C4.62027 21.3305 4.38201 21.1732 4.18399 20.9756C3.98596 20.778 3.8323 20.5441 3.73236 20.2883C3.63242 20.0324 3.58828 19.7599 3.60264 19.4874L4.17422 7.92485C4.19788 7.40648 4.43132 6.91683 4.82579 6.55816C5.22027 6.19949 5.74528 5.99951 6.2912 6H17.7088C18.2547 5.99951 18.7797 6.19949 19.1742 6.55816C19.5687 6.91683 19.8021 7.40648 19.8258 7.92485L20.3973 19.4874C20.4117 19.7599 20.3676 20.0324 20.2676 20.2883C20.1677 20.5441 20.014 20.778 19.816 20.9756C19.618 21.1732 19.3797 21.3305 19.1157 21.4378C18.8517 21.5452 18.5675 21.6003 18.2804 21.6ZM6.2912 7.34807C6.10405 7.34807 5.92456 7.41873 5.79223 7.5445C5.65989 7.67028 5.58554 7.84087 5.58554 8.01875L5.01396 19.5544C5.00917 19.6453 5.02388 19.7361 5.0572 19.8214C5.09051 19.9067 5.14173 19.9846 5.20774 20.0505C5.27375 20.1164 5.35317 20.1688 5.44117 20.2046C5.52917 20.2404 5.6239 20.2588 5.71962 20.2586H18.2804C18.3761 20.2588 18.4708 20.2404 18.5588 20.2046C18.6468 20.1688 18.7262 20.1164 18.7922 20.0505C18.8583 19.9846 18.9095 19.9067 18.9428 19.8214C18.9761 19.7361 18.9908 19.6453 18.986 19.5544L18.4144 7.99192C18.4144 7.81404 18.3401 7.64345 18.2078 7.51768C18.0754 7.3919 17.8959 7.32124 17.7088 7.32124L6.2912 7.34807Z" fill="#464A4F"/>
<path d="M16.5 6.5625H15V5.25C15 4.45435 14.6839 3.69129 14.1213 3.12868C13.5587 2.56607 12.7956 2.25 12 2.25C11.2044 2.25 10.4413 2.56607 9.87868 3.12868C9.31607 3.69129 9 4.45435 9 5.25V6.5625H7.5V5.25C7.5 4.05653 7.97411 2.91193 8.81802 2.06802C9.66193 1.22411 10.8065 0.75 12 0.75C13.1935 0.75 14.3381 1.22411 15.182 2.06802C16.0259 2.91193 16.5 4.05653 16.5 5.25V6.5625Z" fill="#464A4F"/>
</svg>
